# xmcd
#
# Track frame offsets: 
#        150
#        39793
#        75448
#        92651
#        109842
#        146989
#        175102
#
# Disc length: 2885 seconds
#
# Revision: 3
# Processed by: cddbd v1.5.2PL0 Copyright (c) Steve Scherf et al.
# Submitted via: ExactAudioCopy v0.99pb5
#
DISCID=4e0b4307
DTITLE=R.Carlos Nakai with Wind Travelin' Band, Shonosuke Ohkura, and Ok
DTITLE=i Kano - Island of Bows
DYEAR=1994
DGENRE=New Age
TTITLE0=Sunrise
TTITLE1=Island of Bows
TTITLE2=KAMUI
TTITLE3=Sunrise II
TTITLE4=Cloud Temple
TTITLE5=Night Forest
TTITLE6=Red Wind
EXTD=YEAR: 1994
EXTT0=
EXTT1=
EXTT2=
EXTT3=
EXTT4=
EXTT5=
EXTT6=
PLAYORDER=
